<svg width="247" height="53" viewBox="0 0 247 53" fill="none" xmlns="http://www.w3.org/2000/svg">
<path d="M106.5 30H111.5L114 36H109L106.5 30Z" fill="white"/>
<path d="M7.2 30V13.5H0.96V9H18.69V13.5H12.3V30H7.2Z" fill="#FF7900"/>
<path d="M22.2982 30V9H36.9382V13.35H27.2482V25.65H37.2382V30H22.2982ZM24.6982 21.39V17.25H35.5882V21.39H24.6982ZM40.5241 23.58V19.17H50.9041V23.58H40.5241ZM62.0414 30.3C60.6614 30.3 59.4114 30.14 58.2914 29.82C57.1914 29.48 56.2114 29 55.3514 28.38C54.4914 27.74 53.7214 26.99 53.0414 26.13L56.1314 22.62C57.1314 23.96 58.1314 24.86 59.1314 25.32C60.1514 25.78 61.2014 26.01 62.2814 26.01C62.8214 26.01 63.3114 25.94 63.7514 25.8C64.1914 25.66 64.5314 25.46 64.7714 25.2C65.0114 24.92 65.1314 24.58 65.1314 24.18C65.1314 23.88 65.0514 23.61 64.8914 23.37C64.7514 23.13 64.5514 22.92 64.2914 22.74C64.0314 22.56 63.7214 22.4 63.3614 22.26C63.0014 22.1 62.6214 21.97 62.2214 21.87C61.8214 21.75 61.4114 21.65 60.9914 21.57C59.8314 21.31 58.8214 20.99 57.9614 20.61C57.1014 20.23 56.3814 19.77 55.8014 19.23C55.2414 18.67 54.8214 18.04 54.5414 17.34C54.2614 16.62 54.1214 15.82 54.1214 14.94C54.1214 14 54.3314 13.14 54.7514 12.36C55.1914 11.56 55.7714 10.88 56.4914 10.32C57.2314 9.74 58.0814 9.3 59.0414 9C60.0014 8.68 61.0014 8.52 62.0414 8.52C63.4214 8.52 64.6014 8.67 65.5814 8.97C66.5814 9.25 67.4314 9.66 68.1314 10.2C68.8514 10.74 69.4614 11.39 69.9614 12.15L66.8114 15.18C66.3914 14.66 65.9314 14.23 65.4314 13.89C64.9514 13.55 64.4314 13.29 63.8714 13.11C63.3314 12.93 62.7714 12.84 62.1914 12.84C61.5914 12.84 61.0714 12.92 60.6314 13.08C60.2114 13.22 59.8814 13.43 59.6414 13.71C59.4014 13.97 59.2814 14.29 59.2814 14.67C59.2814 15.01 59.3814 15.3 59.5814 15.54C59.7814 15.78 60.0514 16 60.3914 16.2C60.7314 16.38 61.1214 16.54 61.5614 16.68C62.0014 16.8 62.4614 16.9 62.9414 16.98C64.0414 17.2 65.0314 17.49 65.9114 17.85C66.8114 18.21 67.5814 18.65 68.2214 19.17C68.8814 19.69 69.3814 20.31 69.7214 21.03C70.0814 21.73 70.2614 22.55 70.2614 23.49C70.2614 24.95 69.9014 26.19 69.1814 27.21C68.4814 28.21 67.5114 28.98 66.2714 29.52C65.0514 30.04 63.6414 30.3 62.0414 30.3ZM74.0951 30V9H88.7351V13.35H79.0451V25.65H89.0351V30H74.0951ZM76.4951 21.39V17.25H87.3851V21.39H76.4951ZM90.761 30L99.071 9H103.391L111.641 30H106.481L102.521 19.35C102.361 18.93 102.201 18.48 102.041 18C101.881 17.52 101.721 17.03 101.561 16.53C101.401 16.01 101.241 15.51 101.081 15.03C100.941 14.53 100.821 14.07 100.721 13.65L101.621 13.62C101.501 14.12 101.361 14.61 101.201 15.09C101.061 15.57 100.911 16.05 100.751 16.53C100.611 16.99 100.451 17.46 100.271 17.94C100.091 18.4 99.921 18.88 99.761 19.38L95.801 30H90.761ZM94.721 25.98L96.311 22.14H105.971L107.531 25.98H94.721Z" fill="white"/>
<path d="M114.705 49L111.36 38.5H113.085L115.11 45.07C115.17 45.23 115.225 45.42 115.275 45.64C115.325 45.85 115.37 46.065 115.41 46.285C115.45 46.505 115.485 46.71 115.515 46.9C115.555 47.09 115.59 47.245 115.62 47.365L115.185 47.35C115.335 46.82 115.45 46.41 115.53 46.12C115.62 45.83 115.69 45.61 115.74 45.46C115.79 45.3 115.835 45.165 115.875 45.055L117.765 40.315H119.22L121.05 45.055C121.15 45.295 121.235 45.535 121.305 45.775C121.385 46.005 121.455 46.24 121.515 46.48C121.575 46.71 121.64 46.955 121.71 47.215L121.32 47.32C121.37 47.05 121.405 46.84 121.425 46.69C121.455 46.53 121.48 46.4 121.5 46.3C121.52 46.2 121.54 46.105 121.56 46.015C121.58 45.915 121.61 45.79 121.65 45.64C121.7 45.49 121.765 45.285 121.845 45.025L123.84 38.5H125.58L122.235 49H121.11L118.335 42.43L118.47 42.49L115.8 49H114.705ZM130.316 49.15C129.506 49.15 128.786 48.98 128.156 48.64C127.536 48.29 127.046 47.815 126.686 47.215C126.336 46.615 126.161 45.925 126.161 45.145C126.161 44.525 126.261 43.96 126.461 43.45C126.661 42.94 126.936 42.5 127.286 42.13C127.646 41.75 128.071 41.46 128.561 41.26C129.061 41.05 129.601 40.945 130.181 40.945C130.691 40.945 131.166 41.045 131.606 41.245C132.046 41.435 132.426 41.7 132.746 42.04C133.076 42.38 133.326 42.785 133.496 43.255C133.676 43.715 133.761 44.22 133.751 44.77L133.736 45.43H127.301L126.956 44.2H132.401L132.176 44.455V44.095C132.146 43.765 132.036 43.47 131.846 43.21C131.656 42.95 131.416 42.745 131.126 42.595C130.836 42.445 130.521 42.37 130.181 42.37C129.641 42.37 129.186 42.475 128.816 42.685C128.446 42.885 128.166 43.185 127.976 43.585C127.786 43.975 127.691 44.46 127.691 45.04C127.691 45.59 127.806 46.07 128.036 46.48C128.266 46.88 128.591 47.19 129.011 47.41C129.431 47.63 129.916 47.74 130.466 47.74C130.856 47.74 131.216 47.675 131.546 47.545C131.886 47.415 132.251 47.18 132.641 46.84L133.421 47.935C133.181 48.175 132.886 48.385 132.536 48.565C132.196 48.745 131.831 48.89 131.441 49C131.061 49.1 130.686 49.15 130.316 49.15ZM139.57 49.15C139.23 49.15 138.89 49.095 138.55 48.985C138.22 48.875 137.915 48.73 137.635 48.55C137.365 48.36 137.135 48.155 136.945 47.935C136.765 47.705 136.645 47.475 136.585 47.245L136.975 47.035V48.955H135.43V37.9H136.975V42.925L136.735 42.79C136.785 42.56 136.895 42.34 137.065 42.13C137.235 41.91 137.45 41.715 137.71 41.545C137.98 41.365 138.27 41.225 138.58 41.125C138.89 41.015 139.205 40.96 139.525 40.96C140.235 40.96 140.865 41.135 141.415 41.485C141.965 41.835 142.4 42.32 142.72 42.94C143.04 43.55 143.2 44.25 143.2 45.04C143.2 45.83 143.04 46.535 142.72 47.155C142.41 47.775 141.98 48.265 141.43 48.625C140.88 48.975 140.26 49.15 139.57 49.15ZM139.315 47.74C139.775 47.74 140.185 47.625 140.545 47.395C140.905 47.155 141.19 46.835 141.4 46.435C141.61 46.025 141.715 45.56 141.715 45.04C141.715 44.53 141.61 44.075 141.4 43.675C141.2 43.265 140.92 42.945 140.56 42.715C140.2 42.485 139.785 42.37 139.315 42.37C138.845 42.37 138.43 42.485 138.07 42.715C137.71 42.945 137.425 43.265 137.215 43.675C137.005 44.075 136.9 44.53 136.9 45.04C136.9 45.56 137.005 46.025 137.215 46.435C137.425 46.835 137.71 47.155 138.07 47.395C138.43 47.625 138.845 47.74 139.315 47.74ZM147.503 49.15C146.843 49.15 146.248 49.035 145.718 48.805C145.188 48.575 144.748 48.235 144.398 47.785L145.448 46.885C145.748 47.235 146.073 47.49 146.423 47.65C146.783 47.8 147.188 47.875 147.638 47.875C147.818 47.875 147.983 47.855 148.133 47.815C148.293 47.765 148.428 47.695 148.538 47.605C148.658 47.515 148.748 47.41 148.808 47.29C148.868 47.16 148.898 47.02 148.898 46.87C148.898 46.61 148.803 46.4 148.613 46.24C148.513 46.17 148.353 46.095 148.133 46.015C147.923 45.925 147.648 45.835 147.308 45.745C146.728 45.595 146.253 45.425 145.883 45.235C145.513 45.045 145.228 44.83 145.028 44.59C144.878 44.4 144.768 44.195 144.698 43.975C144.628 43.745 144.593 43.495 144.593 43.225C144.593 42.895 144.663 42.595 144.803 42.325C144.953 42.045 145.153 41.805 145.403 41.605C145.663 41.395 145.963 41.235 146.303 41.125C146.653 41.015 147.023 40.96 147.413 40.96C147.783 40.96 148.148 41.01 148.508 41.11C148.878 41.21 149.218 41.355 149.528 41.545C149.838 41.735 150.098 41.96 150.308 42.22L149.423 43.195C149.233 43.005 149.023 42.84 148.793 42.7C148.573 42.55 148.348 42.435 148.118 42.355C147.888 42.275 147.678 42.235 147.488 42.235C147.278 42.235 147.088 42.255 146.918 42.295C146.748 42.335 146.603 42.395 146.483 42.475C146.373 42.555 146.288 42.655 146.228 42.775C146.168 42.895 146.138 43.03 146.138 43.18C146.148 43.31 146.178 43.435 146.228 43.555C146.288 43.665 146.368 43.76 146.468 43.84C146.578 43.92 146.743 44.005 146.963 44.095C147.183 44.185 147.463 44.27 147.803 44.35C148.303 44.48 148.713 44.625 149.033 44.785C149.363 44.935 149.623 45.11 149.813 45.31C150.013 45.5 150.153 45.72 150.233 45.97C150.313 46.22 150.353 46.5 150.353 46.81C150.353 47.26 150.223 47.665 149.963 48.025C149.713 48.375 149.373 48.65 148.943 48.85C148.513 49.05 148.033 49.15 147.503 49.15ZM152.311 49V41.125H153.856V49H152.311ZM153.061 39.385C152.731 39.385 152.476 39.3 152.296 39.13C152.116 38.96 152.026 38.72 152.026 38.41C152.026 38.12 152.116 37.885 152.296 37.705C152.486 37.525 152.741 37.435 153.061 37.435C153.391 37.435 153.646 37.52 153.826 37.69C154.006 37.86 154.096 38.1 154.096 38.41C154.096 38.7 154.001 38.935 153.811 39.115C153.631 39.295 153.381 39.385 153.061 39.385ZM157.205 49V39.115H158.75V49H157.205ZM155.57 42.625V41.125H160.58V42.625H155.57ZM165.589 49.15C164.779 49.15 164.059 48.98 163.429 48.64C162.809 48.29 162.319 47.815 161.959 47.215C161.609 46.615 161.434 45.925 161.434 45.145C161.434 44.525 161.534 43.96 161.734 43.45C161.934 42.94 162.209 42.5 162.559 42.13C162.919 41.75 163.344 41.46 163.834 41.26C164.334 41.05 164.874 40.945 165.454 40.945C165.964 40.945 166.439 41.045 166.879 41.245C167.319 41.435 167.699 41.7 168.019 42.04C168.349 42.38 168.599 42.785 168.769 43.255C168.949 43.715 169.034 44.22 169.024 44.77L169.009 45.43H162.574L162.229 44.2H167.674L167.449 44.455V44.095C167.419 43.765 167.309 43.47 167.119 43.21C166.929 42.95 166.689 42.745 166.399 42.595C166.109 42.445 165.794 42.37 165.454 42.37C164.914 42.37 164.459 42.475 164.089 42.685C163.719 42.885 163.439 43.185 163.249 43.585C163.059 43.975 162.964 44.46 162.964 45.04C162.964 45.59 163.079 46.07 163.309 46.48C163.539 46.88 163.864 47.19 164.284 47.41C164.704 47.63 165.189 47.74 165.739 47.74C166.129 47.74 166.489 47.675 166.819 47.545C167.159 47.415 167.524 47.18 167.914 46.84L168.694 47.935C168.454 48.175 168.159 48.385 167.809 48.565C167.469 48.745 167.104 48.89 166.714 49C166.334 49.1 165.959 49.15 165.589 49.15ZM178.432 52.45C177.872 52.45 177.312 52.36 176.752 52.18C176.202 52.01 175.757 51.785 175.417 51.505L175.987 50.305C176.187 50.455 176.422 50.585 176.692 50.695C176.962 50.815 177.247 50.905 177.547 50.965C177.847 51.035 178.142 51.07 178.432 51.07C178.982 51.07 179.442 50.98 179.812 50.8C180.182 50.62 180.462 50.355 180.652 50.005C180.842 49.655 180.937 49.22 180.937 48.7V47.185L181.102 47.29C181.052 47.6 180.887 47.9 180.607 48.19C180.337 48.47 179.997 48.7 179.587 48.88C179.177 49.06 178.757 49.15 178.327 49.15C177.577 49.15 176.907 48.975 176.317 48.625C175.737 48.265 175.277 47.78 174.937 47.17C174.597 46.55 174.427 45.845 174.427 45.055C174.427 44.265 174.592 43.565 174.922 42.955C175.262 42.335 175.722 41.85 176.302 41.5C176.892 41.14 177.552 40.96 178.282 40.96C178.582 40.96 178.872 41 179.152 41.08C179.432 41.15 179.692 41.255 179.932 41.395C180.172 41.525 180.387 41.67 180.577 41.83C180.767 41.99 180.922 42.16 181.042 42.34C181.162 42.52 181.237 42.69 181.267 42.85L180.937 42.97V41.125H182.482V48.52C182.482 49.15 182.387 49.705 182.197 50.185C182.017 50.675 181.752 51.085 181.402 51.415C181.052 51.755 180.627 52.01 180.127 52.18C179.627 52.36 179.062 52.45 178.432 52.45ZM178.492 47.725C178.982 47.725 179.417 47.61 179.797 47.38C180.177 47.15 180.472 46.835 180.682 46.435C180.892 46.035 180.997 45.575 180.997 45.055C180.997 44.535 180.887 44.075 180.667 43.675C180.457 43.265 180.162 42.945 179.782 42.715C179.412 42.485 178.982 42.37 178.492 42.37C178.012 42.37 177.582 42.49 177.202 42.73C176.832 42.96 176.537 43.28 176.317 43.69C176.107 44.09 176.002 44.545 176.002 45.055C176.002 45.565 176.107 46.025 176.317 46.435C176.537 46.835 176.832 47.15 177.202 47.38C177.582 47.61 178.012 47.725 178.492 47.725ZM188.323 49.15C187.513 49.15 186.793 48.98 186.163 48.64C185.543 48.29 185.053 47.815 184.693 47.215C184.343 46.615 184.168 45.925 184.168 45.145C184.168 44.525 184.268 43.96 184.468 43.45C184.668 42.94 184.943 42.5 185.293 42.13C185.653 41.75 186.078 41.46 186.568 41.26C187.068 41.05 187.608 40.945 188.188 40.945C188.698 40.945 189.173 41.045 189.613 41.245C190.053 41.435 190.433 41.7 190.753 42.04C191.083 42.38 191.333 42.785 191.503 43.255C191.683 43.715 191.768 44.22 191.758 44.77L191.743 45.43H185.308L184.963 44.2H190.408L190.183 44.455V44.095C190.153 43.765 190.043 43.47 189.853 43.21C189.663 42.95 189.423 42.745 189.133 42.595C188.843 42.445 188.528 42.37 188.188 42.37C187.648 42.37 187.193 42.475 186.823 42.685C186.453 42.885 186.173 43.185 185.983 43.585C185.793 43.975 185.698 44.46 185.698 45.04C185.698 45.59 185.813 46.07 186.043 46.48C186.273 46.88 186.598 47.19 187.018 47.41C187.438 47.63 187.923 47.74 188.473 47.74C188.863 47.74 189.223 47.675 189.553 47.545C189.893 47.415 190.258 47.18 190.648 46.84L191.428 47.935C191.188 48.175 190.893 48.385 190.543 48.565C190.203 48.745 189.838 48.89 189.448 49C189.068 49.1 188.693 49.15 188.323 49.15ZM193.437 49V41.125H194.982V42.745L194.712 42.925C194.812 42.575 195.007 42.255 195.297 41.965C195.587 41.665 195.932 41.425 196.332 41.245C196.732 41.055 197.142 40.96 197.562 40.96C198.162 40.96 198.662 41.08 199.062 41.32C199.462 41.55 199.762 41.905 199.962 42.385C200.162 42.865 200.262 43.47 200.262 44.2V49H198.717V44.305C198.717 43.855 198.657 43.485 198.537 43.195C198.417 42.895 198.232 42.68 197.982 42.55C197.732 42.41 197.422 42.35 197.052 42.37C196.752 42.37 196.477 42.42 196.227 42.52C195.977 42.61 195.757 42.74 195.567 42.91C195.387 43.08 195.242 43.28 195.132 43.51C195.032 43.73 194.982 43.97 194.982 44.23V49H194.217C194.087 49 193.957 49 193.827 49C193.697 49 193.567 49 193.437 49ZM206.033 49.15C205.223 49.15 204.503 48.98 203.873 48.64C203.253 48.29 202.763 47.815 202.403 47.215C202.053 46.615 201.878 45.925 201.878 45.145C201.878 44.525 201.978 43.96 202.178 43.45C202.378 42.94 202.653 42.5 203.003 42.13C203.363 41.75 203.788 41.46 204.278 41.26C204.778 41.05 205.318 40.945 205.898 40.945C206.408 40.945 206.883 41.045 207.323 41.245C207.763 41.435 208.143 41.7 208.463 42.04C208.793 42.38 209.043 42.785 209.213 43.255C209.393 43.715 209.478 44.22 209.468 44.77L209.453 45.43H203.018L202.673 44.2H208.118L207.893 44.455V44.095C207.863 43.765 207.753 43.47 207.563 43.21C207.373 42.95 207.133 42.745 206.843 42.595C206.553 42.445 206.238 42.37 205.898 42.37C205.358 42.37 204.903 42.475 204.533 42.685C204.163 42.885 203.883 43.185 203.693 43.585C203.503 43.975 203.408 44.46 203.408 45.04C203.408 45.59 203.523 46.07 203.753 46.48C203.983 46.88 204.308 47.19 204.728 47.41C205.148 47.63 205.633 47.74 206.183 47.74C206.573 47.74 206.933 47.675 207.263 47.545C207.603 47.415 207.968 47.18 208.358 46.84L209.138 47.935C208.898 48.175 208.603 48.385 208.253 48.565C207.913 48.745 207.548 48.89 207.158 49C206.778 49.1 206.403 49.15 206.033 49.15ZM211.147 49V41.125H212.707V43.6L212.557 43C212.667 42.62 212.852 42.275 213.112 41.965C213.382 41.655 213.687 41.41 214.027 41.23C214.377 41.05 214.737 40.96 215.107 40.96C215.277 40.96 215.437 40.975 215.587 41.005C215.747 41.035 215.872 41.07 215.962 41.11L215.557 42.79C215.437 42.74 215.302 42.7 215.152 42.67C215.012 42.63 214.872 42.61 214.732 42.61C214.462 42.61 214.202 42.665 213.952 42.775C213.712 42.875 213.497 43.02 213.307 43.21C213.127 43.39 212.982 43.605 212.872 43.855C212.762 44.095 212.707 44.36 212.707 44.65V49H211.147ZM219.89 49.15C219.24 49.15 218.645 48.97 218.105 48.61C217.575 48.25 217.15 47.76 216.83 47.14C216.51 46.52 216.35 45.82 216.35 45.04C216.35 44.25 216.51 43.55 216.83 42.94C217.16 42.32 217.6 41.835 218.15 41.485C218.71 41.135 219.335 40.96 220.025 40.96C220.435 40.96 220.81 41.02 221.15 41.14C221.49 41.26 221.785 41.43 222.035 41.65C222.295 41.86 222.505 42.105 222.665 42.385C222.835 42.665 222.94 42.965 222.98 43.285L222.635 43.165V41.125H224.195V49H222.635V47.125L222.995 47.02C222.935 47.29 222.81 47.555 222.62 47.815C222.44 48.065 222.205 48.29 221.915 48.49C221.635 48.69 221.32 48.85 220.97 48.97C220.63 49.09 220.27 49.15 219.89 49.15ZM220.295 47.725C220.765 47.725 221.18 47.61 221.54 47.38C221.9 47.15 222.18 46.835 222.38 46.435C222.59 46.025 222.695 45.56 222.695 45.04C222.695 44.53 222.59 44.075 222.38 43.675C222.18 43.275 221.9 42.96 221.54 42.73C221.18 42.5 220.765 42.385 220.295 42.385C219.835 42.385 219.425 42.5 219.065 42.73C218.715 42.96 218.435 43.275 218.225 43.675C218.025 44.075 217.925 44.53 217.925 45.04C217.925 45.56 218.025 46.025 218.225 46.435C218.435 46.835 218.715 47.15 219.065 47.38C219.425 47.61 219.835 47.725 220.295 47.725ZM227.327 49V39.115H228.872V49H227.327ZM225.692 42.625V41.125H230.702V42.625H225.692ZM235.576 49.15C234.806 49.15 234.116 48.975 233.506 48.625C232.906 48.265 232.431 47.78 232.081 47.17C231.731 46.55 231.556 45.845 231.556 45.055C231.556 44.265 231.731 43.565 232.081 42.955C232.431 42.335 232.906 41.85 233.506 41.5C234.116 41.14 234.806 40.96 235.576 40.96C236.336 40.96 237.016 41.14 237.616 41.5C238.226 41.85 238.706 42.335 239.056 42.955C239.406 43.565 239.581 44.265 239.581 45.055C239.581 45.845 239.406 46.55 239.056 47.17C238.706 47.78 238.226 48.265 237.616 48.625C237.016 48.975 236.336 49.15 235.576 49.15ZM235.576 47.74C236.046 47.74 236.466 47.625 236.836 47.395C237.206 47.155 237.496 46.835 237.706 46.435C237.916 46.025 238.016 45.565 238.006 45.055C238.016 44.535 237.916 44.075 237.706 43.675C237.496 43.265 237.206 42.945 236.836 42.715C236.466 42.485 236.046 42.37 235.576 42.37C235.106 42.37 234.681 42.49 234.301 42.73C233.931 42.96 233.641 43.28 233.431 43.69C233.221 44.09 233.121 44.545 233.131 45.055C233.121 45.565 233.221 46.025 233.431 46.435C233.641 46.835 233.931 47.155 234.301 47.395C234.681 47.625 235.106 47.74 235.576 47.74ZM241.265 49V41.125H242.825V43.6L242.675 43C242.785 42.62 242.97 42.275 243.23 41.965C243.5 41.655 243.805 41.41 244.145 41.23C244.495 41.05 244.855 40.96 245.225 40.96C245.395 40.96 245.555 40.975 245.705 41.005C245.865 41.035 245.99 41.07 246.08 41.11L245.675 42.79C245.555 42.74 245.42 42.7 245.27 42.67C245.13 42.63 244.99 42.61 244.85 42.61C244.58 42.61 244.32 42.665 244.07 42.775C243.83 42.875 243.615 43.02 243.425 43.21C243.245 43.39 243.1 43.605 242.99 43.855C242.88 44.095 242.825 44.36 242.825 44.65V49H241.265Z" fill="white"/>
<path d="M102 9H103.5L110 26H108.5L102 9Z" fill="white"/>
</svg>
